<?xml version="1.0" encoding="UTF-8" standalone="no"?>
<!-- Created with Inkscape (http://www.inkscape.org/) -->

<svg
   width="1024"
   height="1024"
   viewBox="0 0 1024 1024"
   version="1.1"
   id="svg1"
   xml:space="preserve"
   inkscape:version="1.3.1 (91b66b0783, 2023-11-16)"
   sodipodi:docname="icon.svg"
   inkscape:export-filename="icon.png"
   inkscape:export-xdpi="12"
   inkscape:export-ydpi="12"
   xmlns:inkscape="http://www.inkscape.org/namespaces/inkscape"
   xmlns:sodipodi="http://sodipodi.sourceforge.net/DTD/sodipodi-0.dtd"
   xmlns="http://www.w3.org/2000/svg"
   xmlns:svg="http://www.w3.org/2000/svg"><sodipodi:namedview
     id="namedview1"
     pagecolor="#292929"
     bordercolor="#00f9bc"
     borderopacity="1"
     inkscape:showpageshadow="0"
     inkscape:pageopacity="0"
     inkscape:pagecheckerboard="0"
     inkscape:deskcolor="#3e3e3e"
     inkscape:document-units="mm"
     inkscape:zoom="0.22627417"
     inkscape:cx="-1168.9359"
     inkscape:cy="-554.63688"
     inkscape:window-width="2560"
     inkscape:window-height="1417"
     inkscape:window-x="-8"
     inkscape:window-y="-8"
     inkscape:window-maximized="1"
     showgrid="false"
     inkscape:current-layer="layer1"><inkscape:grid
       id="grid10"
       units="px"
       originx="0"
       originy="0"
       spacingx="1"
       spacingy="1"
       empcolor="#0099e5"
       empopacity="0.30196078"
       color="#0099e5"
       opacity="0.14901961"
       empspacing="5"
       dotted="false"
       gridanglex="30"
       gridanglez="30"
       visible="false" /></sodipodi:namedview><defs
     id="defs1"><clipPath
       clipPathUnits="userSpaceOnUse"
       id="clipPath72"><circle
         style="display:inline;fill:#343434;fill-opacity:1;stroke:none;stroke-width:0.755906;stroke-linecap:round;stroke-linejoin:round;stroke-dasharray:none;stroke-dashoffset:0;stroke-opacity:1;paint-order:markers fill stroke"
         id="circle72"
         cx="-517.04999"
         cy="513.05389"
         r="470"
         inkscape:label="circle"
         transform="rotate(-90)" /></clipPath><clipPath
       clipPathUnits="userSpaceOnUse"
       id="clipPath76"><circle
         style="display:inline;fill:#343434;fill-opacity:1;stroke:none;stroke-width:0.755906;stroke-linecap:round;stroke-linejoin:round;stroke-dasharray:none;stroke-dashoffset:0;stroke-opacity:1;paint-order:markers fill stroke"
         id="circle76"
         cx="510"
         cy="510"
         r="470"
         inkscape:label="circle" /></clipPath></defs><g
     inkscape:groupmode="layer"
     id="layer1"
     inkscape:label="Layer 2 copy 1"
     style="display:inline"><circle
       style="opacity:1;fill:#343434;fill-opacity:1;stroke:none;stroke-width:0.755906;stroke-linecap:round;stroke-linejoin:round;stroke-dasharray:none;stroke-dashoffset:0;stroke-opacity:1;paint-order:markers fill stroke"
       id="path35"
       cx="510"
       cy="510"
       r="470"
       inkscape:label="circle" /><g
       id="g74"
       clip-path="url(#clipPath76)"><circle
         style="display:inline;fill:#001cf2;fill-opacity:1;stroke:none;stroke-width:1.81606;stroke-linecap:round;stroke-linejoin:round;stroke-dasharray:none;stroke-opacity:1;paint-order:markers fill stroke"
         id="path73"
         cx="227.34375"
         cy="247.65625"
         r="5.078125" /><circle
         style="display:inline;fill:#f20500;fill-opacity:1;stroke:none;stroke-width:1.81606;stroke-linecap:round;stroke-linejoin:round;stroke-dasharray:none;stroke-opacity:1;paint-order:markers fill stroke"
         id="path74"
         cx="236.71875"
         cy="352.34375"
         r="5.859375" /><circle
         style="display:inline;fill:#0000f2;fill-opacity:1;stroke:none;stroke-width:1.81606;stroke-linecap:round;stroke-linejoin:round;stroke-dasharray:none;stroke-opacity:1;paint-order:markers fill stroke"
         id="path73-3"
         cx="356.15625"
         cy="323.15625"
         r="5.078125" /><circle
         style="display:inline;fill:#38f200;fill-opacity:1;stroke:none;stroke-width:1.81606;stroke-linecap:round;stroke-linejoin:round;stroke-dasharray:none;stroke-opacity:1;paint-order:markers fill stroke"
         id="path74-3"
         cx="157.53125"
         cy="427.84375"
         r="5.859375" /><circle
         style="display:inline;fill:#88f200;fill-opacity:1;stroke:none;stroke-width:1.81606;stroke-linecap:round;stroke-linejoin:round;stroke-dasharray:none;stroke-opacity:1;paint-order:markers fill stroke"
         id="path74-3-4"
         cx="303.71875"
         cy="440.71875"
         r="5.859375" /><circle
         style="display:inline;fill:#f20500;fill-opacity:1;stroke:none;stroke-width:1.81606;stroke-linecap:round;stroke-linejoin:round;stroke-dasharray:none;stroke-opacity:1;paint-order:markers fill stroke"
         id="path74-3-8"
         cx="196.71875"
         cy="574.71875"
         r="5.859375" /><circle
         style="display:inline;fill:#00f22d;fill-opacity:1;stroke:none;stroke-width:1.81606;stroke-linecap:round;stroke-linejoin:round;stroke-dasharray:none;stroke-opacity:1;paint-order:markers fill stroke"
         id="path74-3-2"
         cx="66.71875"
         cy="535.71875"
         r="5.859375" /><circle
         style="display:inline;fill:#f200a5;fill-opacity:1;stroke:none;stroke-width:1.81606;stroke-linecap:round;stroke-linejoin:round;stroke-dasharray:none;stroke-opacity:1;paint-order:markers fill stroke"
         id="path74-3-6"
         cx="164.71875"
         cy="737.71875"
         r="5.859375" /><circle
         style="display:inline;fill:#d200f2;fill-opacity:1;stroke:none;stroke-width:1.81606;stroke-linecap:round;stroke-linejoin:round;stroke-dasharray:none;stroke-opacity:1;paint-order:markers fill stroke"
         id="path74-3-48"
         cx="322.71875"
         cy="146.71875"
         r="5.859375" /><circle
         style="display:inline;fill:#e9f200;fill-opacity:1;stroke:none;stroke-width:1.81606;stroke-linecap:round;stroke-linejoin:round;stroke-dasharray:none;stroke-opacity:1;paint-order:markers fill stroke"
         id="path74-3-62"
         cx="736.71875"
         cy="133.71875"
         r="5.859375" /><circle
         style="display:inline;fill:#44f200;fill-opacity:1;stroke:none;stroke-width:1.81606;stroke-linecap:round;stroke-linejoin:round;stroke-dasharray:none;stroke-opacity:1;paint-order:markers fill stroke"
         id="path74-3-3"
         cx="714.71875"
         cy="239.71875"
         r="5.859375" /><circle
         style="display:inline;fill:#00f25b;fill-opacity:1;stroke:none;stroke-width:1.81606;stroke-linecap:round;stroke-linejoin:round;stroke-dasharray:none;stroke-opacity:1;paint-order:markers fill stroke"
         id="path74-3-1"
         cx="723.71875"
         cy="383.71875"
         r="5.859375" /><circle
         style="display:inline;fill:#cc00f2;fill-opacity:1;stroke:none;stroke-width:1.81606;stroke-linecap:round;stroke-linejoin:round;stroke-dasharray:none;stroke-opacity:1;paint-order:markers fill stroke"
         id="path74-3-10"
         cx="867.71875"
         cy="338.71875"
         r="5.859375" /><circle
         style="display:inline;fill:#f2004f;fill-opacity:1;stroke:none;stroke-width:1.81606;stroke-linecap:round;stroke-linejoin:round;stroke-dasharray:none;stroke-opacity:1;paint-order:markers fill stroke"
         id="path74-3-9"
         cx="782.71875"
         cy="429.71875"
         r="5.859375" /><circle
         style="display:inline;fill:#f24400;fill-opacity:1;stroke:none;stroke-width:1.81606;stroke-linecap:round;stroke-linejoin:round;stroke-dasharray:none;stroke-opacity:1;paint-order:markers fill stroke"
         id="path74-3-37"
         cx="775.71875"
         cy="578.71875"
         r="5.859375" /><circle
         style="display:inline;fill:#e900f2;fill-opacity:1;stroke:none;stroke-width:1.81606;stroke-linecap:round;stroke-linejoin:round;stroke-dasharray:none;stroke-opacity:1;paint-order:markers fill stroke"
         id="path74-3-98"
         cx="878.71875"
         cy="559.71875"
         r="5.859375" /><circle
         style="display:inline;fill:#f2009f;fill-opacity:1;stroke:none;stroke-width:1.81606;stroke-linecap:round;stroke-linejoin:round;stroke-dasharray:none;stroke-opacity:1;paint-order:markers fill stroke"
         id="path74-3-35"
         cx="819.71875"
         cy="633.71875"
         r="5.859375" /><circle
         style="display:inline;fill:#00b0f2;fill-opacity:1;stroke:none;stroke-width:1.81606;stroke-linecap:round;stroke-linejoin:round;stroke-dasharray:none;stroke-opacity:1;paint-order:markers fill stroke"
         id="path74-3-25"
         cx="815.54425"
         cy="730.79254"
         r="5.859375" /><circle
         style="display:inline;fill:#00f233;fill-opacity:1;stroke:none;stroke-width:1.81606;stroke-linecap:round;stroke-linejoin:round;stroke-dasharray:none;stroke-opacity:1;paint-order:markers fill stroke"
         id="path74-3-0"
         cx="725.71875"
         cy="799.71875"
         r="5.859375" /><circle
         style="display:inline;fill:#000bf2;fill-opacity:1;stroke:none;stroke-width:1.81606;stroke-linecap:round;stroke-linejoin:round;stroke-dasharray:none;stroke-opacity:1;paint-order:markers fill stroke"
         id="path74-3-102"
         cx="799.71875"
         cy="811.71875"
         r="5.859375" /><circle
         style="display:inline;fill:#99f200;fill-opacity:1;stroke:none;stroke-width:1.81606;stroke-linecap:round;stroke-linejoin:round;stroke-dasharray:none;stroke-opacity:1;paint-order:markers fill stroke"
         id="path74-3-102-1"
         cx="889.85938"
         cy="789.85938"
         r="5.859375" /><circle
         style="display:inline;fill:#55f200;fill-opacity:1;stroke:none;stroke-width:1.81606;stroke-linecap:round;stroke-linejoin:round;stroke-dasharray:none;stroke-opacity:1;paint-order:markers fill stroke"
         id="path74-3-102-5"
         cx="764.85938"
         cy="901.85938"
         r="5.859375" /><circle
         style="display:inline;fill:#a500f2;fill-opacity:1;stroke:none;stroke-width:1.81606;stroke-linecap:round;stroke-linejoin:round;stroke-dasharray:none;stroke-opacity:1;paint-order:markers fill stroke"
         id="path74-3-7"
         cx="914.71875"
         cy="683.71875"
         r="5.859375" /><circle
         style="display:inline;fill:#f2a500;fill-opacity:1;stroke:none;stroke-width:1.81606;stroke-linecap:round;stroke-linejoin:round;stroke-dasharray:none;stroke-opacity:1;paint-order:markers fill stroke"
         id="path74-3-32"
         cx="979.43384"
         cy="475.21945"
         r="5.859375" /><circle
         style="display:inline;fill:#f20000;fill-opacity:1;stroke:none;stroke-width:1.81606;stroke-linecap:round;stroke-linejoin:round;stroke-dasharray:none;stroke-opacity:1;paint-order:markers fill stroke"
         id="path74-3-90"
         cx="102.71875"
         cy="291.71875"
         r="5.859375" /><circle
         style="display:inline;fill:#00f26c;fill-opacity:1;stroke:none;stroke-width:1.81606;stroke-linecap:round;stroke-linejoin:round;stroke-dasharray:none;stroke-opacity:1;paint-order:markers fill stroke"
         id="path74-3-90-4"
         cx="211.83516"
         cy="873.03369"
         r="5.859375" /><circle
         style="display:inline;fill:#00f222;fill-opacity:1;stroke:none;stroke-width:1.81606;stroke-linecap:round;stroke-linejoin:round;stroke-dasharray:none;stroke-opacity:1;paint-order:markers fill stroke"
         id="path74-3-90-1"
         cx="653.71875"
         cy="916.71875"
         r="5.859375" /><circle
         style="display:inline;fill:#00f24f;fill-opacity:1;stroke:none;stroke-width:1.81606;stroke-linecap:round;stroke-linejoin:round;stroke-dasharray:none;stroke-opacity:1;paint-order:markers fill stroke"
         id="path74-3-90-1-1"
         cx="551.71875"
         cy="942.71875"
         r="5.859375" /><circle
         style="display:inline;fill:#cdc700;fill-opacity:1;stroke:none;stroke-width:1.81606;stroke-linecap:round;stroke-linejoin:round;stroke-dasharray:none;stroke-opacity:1;paint-order:markers fill stroke"
         id="path74-3-90-1-5"
         cx="400.71875"
         cy="869.71875"
         r="5.859375" /><circle
         style="display:inline;fill:#f200aa;fill-opacity:1;stroke:none;stroke-width:1.81606;stroke-linecap:round;stroke-linejoin:round;stroke-dasharray:none;stroke-opacity:1;paint-order:markers fill stroke"
         id="path74-3-90-1-2"
         cx="365.71875"
         cy="946.71875"
         r="5.859375" /><circle
         style="display:inline;fill:#f21c00;fill-opacity:1;stroke:none;stroke-width:1.81606;stroke-linecap:round;stroke-linejoin:round;stroke-dasharray:none;stroke-opacity:1;paint-order:markers fill stroke"
         id="path74-3-90-1-24"
         cx="277.71875"
         cy="627.71875"
         r="5.859375" /><circle
         style="display:inline;fill:#1c00f2;fill-opacity:1;stroke:none;stroke-width:1.81606;stroke-linecap:round;stroke-linejoin:round;stroke-dasharray:none;stroke-opacity:1;paint-order:markers fill stroke"
         id="path74-3-90-1-4"
         cx="303.71875"
         cy="776.71875"
         r="5.859375" /><circle
         style="display:inline;fill:#f20027;fill-opacity:1;stroke:none;stroke-width:1.81606;stroke-linecap:round;stroke-linejoin:round;stroke-dasharray:none;stroke-opacity:1;paint-order:markers fill stroke"
         id="path74-3-90-1-9"
         cx="648.71875"
         cy="281.71875"
         r="5.859375" /><circle
         style="display:inline;fill:#f200e3;fill-opacity:1;stroke:none;stroke-width:1.81606;stroke-linecap:round;stroke-linejoin:round;stroke-dasharray:none;stroke-opacity:1;paint-order:markers fill stroke"
         id="path74-3-90-1-0"
         cx="611.71875"
         cy="133.71875"
         r="5.859375" /><circle
         style="display:inline;fill:#00def2;fill-opacity:1;stroke:none;stroke-width:1.81606;stroke-linecap:round;stroke-linejoin:round;stroke-dasharray:none;stroke-opacity:1;paint-order:markers fill stroke"
         id="path74-3-90-1-51"
         cx="422.71875"
         cy="91.71875"
         r="5.859375" /><circle
         style="display:inline;fill:#00bbf2;fill-opacity:1;stroke:none;stroke-width:1.81606;stroke-linecap:round;stroke-linejoin:round;stroke-dasharray:none;stroke-opacity:1;paint-order:markers fill stroke"
         id="path74-3-90-1-47"
         cx="648.71875"
         cy="62.71875"
         r="5.859375" /><circle
         style="display:inline;fill:#def200;fill-opacity:1;stroke:none;stroke-width:1.81606;stroke-linecap:round;stroke-linejoin:round;stroke-dasharray:none;stroke-opacity:1;paint-order:markers fill stroke"
         id="path74-3-90-1-92"
         cx="847.71875"
         cy="225.71875"
         r="5.859375" /><circle
         style="display:inline;fill:#c700f2;fill-opacity:1;stroke:none;stroke-width:1.81606;stroke-linecap:round;stroke-linejoin:round;stroke-dasharray:none;stroke-opacity:1;paint-order:markers fill stroke"
         id="path74-3-90-1-20"
         cx="906.71875"
         cy="264.71875"
         r="5.859375" /><circle
         style="display:inline;fill:#f28800;fill-opacity:1;stroke:none;stroke-width:1.81606;stroke-linecap:round;stroke-linejoin:round;stroke-dasharray:none;stroke-opacity:1;paint-order:markers fill stroke"
         id="path74-3-90-1-3"
         cx="268.71875"
         cy="116.71875"
         r="5.859375" /><circle
         style="display:inline;fill:#00e9f2;fill-opacity:1;stroke:none;stroke-width:1.81606;stroke-linecap:round;stroke-linejoin:round;stroke-dasharray:none;stroke-opacity:1;paint-order:markers fill stroke"
         id="path74-3-90-1-95"
         cx="67.71875"
         cy="670.71875"
         r="5.859375" /></g></g><g
     inkscape:groupmode="layer"
     id="layer2"
     inkscape:label="Layer 2"><g
       id="g11"
       inkscape:label="target"
       transform="rotate(90,515.05194,511.99807)"
       style="display:inline"
       clip-path="url(#clipPath72)"><g
         id="g12"
         inkscape:label="outline"
         style="display:none"><path
           id="path5-6"
           style="display:inline;fill:none;fill-opacity:1;stroke:#ffffff;stroke-width:22.6772;stroke-linecap:round;stroke-linejoin:round;stroke-dasharray:none;stroke-opacity:1;paint-order:markers fill stroke"
           d="m 596.139,741.055 c 69.082,18.509 110.884,22.548 124.525,-59.012 71.153,15.521 93.511,39.581 242.096,68.495 192.52,37.463 462.52,-300.449 512.18,-302.378 -36.59,1.421 -254.81,-309.806 -581.756,-225.883 -76.985,19.761 -140.117,92.935 -202,109.667 -5.848,-15.257 -11.628,-23.457 -16.644,-22.34 -15.829,3.528 -25.336,11.3 -36.535,16.541 -42.439,-27.314 -109.796,-18.933 -208.138,7.419 -211.763,56.747 -266.324,79.436 -285.959,98.228 -4.823,0.158 -5.092,-1.584 -10.383,-0.422 -2.213,0.486 -3.83,5.897 -5.016,14.048 -10.434,3.939 -24.891,29.701 -24.891,44.874 0,0.266 0.004,0.602 0.005,0.885 -1.564,2.92 -4.2236,11.796 -4.2236,15.062 0,3.913 0.3793,7.824 0.7596,7.823 0.549,-10e-4 3.093,-1.04 4.491,-2.367 0.249,1.45 0.55,2.353 0.919,2.352 0.353,-10e-4 0.766,-0.404 1.239,-1.093 -0.034,0.381 -0.057,0.75 -0.057,1.089 0,1.186 0.022,2.341 0.058,3.466 -1.566,3.736 -3.497,10.408 -3.497,13.194 0,3.956 0.388,7.939 0.777,7.965 0.667,0.045 4.225,-1.183 5.256,-2.803 0.466,1.514 0.894,2.377 1.173,2.395 1.338,0.087 12.207,-4.573 15.249,-5.219 1.815,47.444 12.864,78.902 35.727,84.641 52.377,13.147 335.707,96.865 434.645,123.373 z"
           inkscape:label="white" /><path
           id="path5-6-4"
           style="display:inline;fill:none;fill-opacity:1;stroke:#000000;stroke-width:11.3386;stroke-linecap:round;stroke-linejoin:round;stroke-dasharray:none;stroke-opacity:1;paint-order:markers fill stroke"
           d="m 596.139,741.055 c 69.082,18.509 110.884,22.548 124.525,-59.012 71.153,15.521 93.511,39.581 242.096,68.495 192.52,37.463 462.52,-300.449 512.18,-302.378 -36.59,1.421 -254.81,-309.806 -581.756,-225.883 -76.985,19.761 -140.117,92.935 -202,109.667 -5.848,-15.257 -11.628,-23.457 -16.644,-22.34 -15.829,3.528 -25.336,11.3 -36.535,16.541 -42.439,-27.314 -109.796,-18.933 -208.138,7.419 -211.763,56.747 -266.324,79.436 -285.959,98.228 -4.823,0.158 -5.092,-1.584 -10.383,-0.422 -2.213,0.486 -3.83,5.897 -5.016,14.048 -10.434,3.939 -24.891,29.701 -24.891,44.874 0,0.266 0.004,0.602 0.005,0.885 -1.564,2.92 -4.2236,11.796 -4.2236,15.062 0,3.913 0.3793,7.824 0.7596,7.823 0.549,-10e-4 3.093,-1.04 4.491,-2.367 0.249,1.45 0.55,2.353 0.919,2.352 0.353,-10e-4 0.766,-0.404 1.239,-1.093 -0.034,0.381 -0.057,0.75 -0.057,1.089 0,1.186 0.022,2.341 0.058,3.466 -1.566,3.736 -3.497,10.408 -3.497,13.194 0,3.956 0.388,7.939 0.777,7.965 0.667,0.045 4.225,-1.183 5.256,-2.803 0.466,1.514 0.894,2.377 1.173,2.395 1.338,0.087 12.207,-4.573 15.249,-5.219 1.815,47.444 12.864,78.902 35.727,84.641 52.377,13.147 335.707,96.865 434.645,123.373 z"
           inkscape:label="black" /></g><g
         id="g9"
         transform="rotate(-5.6383539,1854.6609,1993.2279)"
         inkscape:label="razorshell"><g
           id="g20"
           inkscape:label="nose"
           transform="matrix(2.5956314,0.87713382,-0.32186967,1.5284186,-334.3124,-400.18101)"><g
             id="g25"
             inkscape:label="nosetop2"><path
               style="display:inline;opacity:1;fill:#ffc0bd;fill-opacity:1;stroke:#000000;stroke-width:1.88976;stroke-linecap:round;stroke-linejoin:round;stroke-dasharray:none;stroke-opacity:1;paint-order:markers fill stroke"
               d="m 259.567,345.377 c -0.196,1.981 -5.013,3.518 -5.772,3.445 -0.378,-0.036 -0.371,-3.964 0.013,-7.855 0.385,-3.892 5.372,-15.459 6.539,-15.426 0.782,0.022 -0.194,13.895 -0.78,19.836 z"
               id="path8"
               sodipodi:nodetypes="sssss"
               inkscape:label="main" /><path
               style="fill:none;fill-opacity:1;stroke:#000000;stroke-width:0.755906;stroke-linecap:round;stroke-linejoin:round;stroke-dasharray:none;stroke-dashoffset:0;stroke-opacity:1;paint-order:markers fill stroke"
               d="m 256.387,344.361 2.059,-0.98 m -2.125,-1.724 1.951,-2.447"
               id="path22-9"
               sodipodi:nodetypes="cccc" /><path
               style="fill:none;fill-opacity:1;stroke:#000000;stroke-width:0.755906;stroke-linecap:round;stroke-linejoin:round;stroke-dasharray:none;stroke-dashoffset:0;stroke-opacity:1;paint-order:markers fill stroke"
               d="m 256.347,339.081 2.124,-4.366"
               id="path23-5"
               sodipodi:nodetypes="cc" /></g><g
             id="g24"
             inkscape:label="nosetop1"><path
               style="display:inline;fill:#ffc0bd;fill-opacity:1;stroke:#000000;stroke-width:1.88976;stroke-linecap:round;stroke-linejoin:round;stroke-dasharray:none;stroke-opacity:1;paint-order:markers fill stroke"
               d="m 261.148,370.588 c -0.198,2.003 -5.091,3.222 -5.862,3.094 -0.383,-0.065 -0.378,-4.064 0.011,-7.999 0.388,-3.936 5.449,-15.36 6.635,-15.243 0.794,0.078 -0.191,14.139 -0.784,20.148 z"
               id="path8-3"
               sodipodi:nodetypes="sssss"
               inkscape:label="main" /><path
               style="opacity:1;fill:none;fill-opacity:1;stroke:#000000;stroke-width:0.755906;stroke-linecap:round;stroke-linejoin:round;stroke-dasharray:none;stroke-dashoffset:0;stroke-opacity:1;paint-order:markers fill stroke"
               d="m 105.937,534.317 1.996,-1.05 m -2.334,-1.688 1.739,-2.532"
               id="path22"
               sodipodi:nodetypes="cccc"
               transform="rotate(5.6383539,1854.646,1993.2419)" /><path
               style="opacity:1;fill:none;fill-opacity:1;stroke:#000000;stroke-width:0.755906;stroke-linecap:round;stroke-linejoin:round;stroke-dasharray:none;stroke-dashoffset:0;stroke-opacity:1;paint-order:markers fill stroke"
               d="m 105.367,528.969 1.721,-4.482"
               id="path23"
               transform="rotate(5.6383539,1854.646,1993.2419)" /></g><g
             id="g35"
             inkscape:label="nose2"><path
               style="display:inline;opacity:1;fill:#ffdbe1;fill-opacity:1;stroke:#000000;stroke-width:1.76194;stroke-linecap:round;stroke-linejoin:round;stroke-dasharray:none;stroke-opacity:1;paint-order:markers fill stroke"
               d="m 284.55164,367.57384 c -1.733,-0.255 -21.40764,6.56916 -22.83464,6.33416 -0.967,-0.16 -2.74,-10.548 -1.367,-24.457 0.785,-7.948 19.08764,-30.27216 28.96264,-30.10616 2.665,0.045 2.099,14.878 0.845,27.579 -1.045,10.584 -3.846,20.798 -5.606,20.65 z"
               id="path5"
               sodipodi:nodetypes="ccccsc"
               inkscape:label="main" /></g><g
             id="g34"
             inkscape:label="nose1"><path
               style="display:inline;opacity:1;fill:#ffdbe1;fill-opacity:1;stroke:#000000;stroke-width:1.76194;stroke-linecap:round;stroke-linejoin:round;stroke-dasharray:none;stroke-opacity:1;paint-order:markers fill stroke"
               d="m 282.322,326.156 c -11.527,-0.323 -20.394,23.446 -23.146,23.182 -1.555,-0.149 -0.386,-15.941 0.392,-23.819 1.556,-15.756 19.983,-41.556 30.576,-42.46 1.367,-0.117 1.944,5.86 0.892,16.515 -2.65,26.842 -7.831,26.607 -8.714,26.582 z"
               id="path6"
               sodipodi:nodetypes="cccccc"
               inkscape:label="main" /></g></g><path
           style="display:inline;fill:#5d1cff;fill-opacity:1;stroke:#000000;stroke-width:3.62457;stroke-linecap:round;stroke-linejoin:round;stroke-dasharray:none;stroke-opacity:1;paint-order:markers fill stroke"
           d="m 975.01135,508.07092 c 0,0 39.23295,-222.66875 -30.30731,-297.31934 -15.88505,-17.05239 -40.2267,-36.08656 -74.67896,-39.77023 -45.50077,-4.86499 -189.61391,19.9807 -324.65219,44.0785 -54.65106,9.75256 -174.42901,31.64981 -174.42901,31.64981 L 615.07802,465.3194 Z"
           id="path72"
           transform="translate(-3.9090554e-6)"
           sodipodi:nodetypes="csssccc" /><path
           style="display:inline;fill:#ffced7;fill-opacity:1;stroke:#000000;stroke-width:3.77953;stroke-linecap:round;stroke-linejoin:round;stroke-dasharray:none;stroke-opacity:1;paint-order:markers fill stroke"
           d="m 794.504,217.695 c 17.589,-2.033 28.63994,-13.15851 49.875,-15.737 99.89201,-12.12949 188.6729,61.52634 171.4449,236.02534 C 1000.7499,590.67034 873.85982,679.43049 724.228,623.076 628.60017,587.06055 357.73535,466.06859 306.96948,447.86323 c -7.53923,-2.70368 -25.39701,-17.4046 -30.68932,-28.09693 -11.54372,-23.32235 -8.13976,-44.63196 -4.65114,-81.96453 3.12824,-33.47607 12.36086,-60.42027 17.026,-66.08547 5.95575,-7.23247 18.4294,-13.96448 30.2064,-15.26548 51.313,-5.672 372.03658,-26.78582 475.64258,-38.75582 z"
           id="path2"
           sodipodi:nodetypes="ssssssssss"
           inkscape:label="body" /><g
           id="g36"
           inkscape:label="after_fire"
           transform="translate(7.3913775e-5,4.665451e-5)"><path
             style="display:inline;opacity:1;fill:#a5eeff;fill-opacity:0.57326;stroke:none;stroke-width:3.77953;stroke-linecap:round;stroke-linejoin:round;stroke-dasharray:none;stroke-opacity:1;paint-order:markers fill stroke"
             d="M 850.56511,595.33998 C 1838.7484,932.69303 1876.7336,494.06086 1912.0819,477.04218 1883.0928,457.68155 1940.6257,99.394708 866.21411,251.10098 c -18.954,1.783 -48.149,103.772 -55.566,178.901 -6.429,65.111 5.419,155.836 39.917,165.338 z"
             id="path9"
             sodipodi:nodetypes="ccccc"
             inkscape:label="outer" /><path
             style="display:inline;fill:#ffffff;fill-opacity:0.5;stroke:none;stroke-width:3.12121;stroke-linecap:round;stroke-linejoin:round;stroke-dasharray:none;stroke-opacity:1;paint-order:markers fill stroke"
             d="M 801.40297,551.99971 C 1354.5576,691.27727 1434.8826,428.34823 1464.4383,442.58314 1429.4454,454.63876 1509.3445,228.8861 810.12467,283.5935 c -17.15538,0.89894 -4.17034,86.8636 -10.1645,147.57443 -5.19486,52.61753 -29.96326,113.85932 1.4428,120.83178 z"
             id="path9-7"
             sodipodi:nodetypes="ccccc"
             inkscape:label="main" /><path
             style="display:inline;fill:#e5d3ff;fill-opacity:0.5;stroke:none;stroke-width:1.77404;stroke-linecap:round;stroke-linejoin:round;stroke-dasharray:none;stroke-opacity:1;paint-order:markers fill stroke"
             d="m 821.6732,497.33292 c 149.74198,10.31082 256.85,-58.01272 265.5803,-64.01962 -7.6025,-7.32774 -101.55706,-78.57631 -245.51796,-95.27457 -29.80782,0.39489 -52.69692,38.38936 -56.21492,74.02336 -3.049,30.883 -0.9509,79.40857 36.15258,85.27083 z"
             id="path9-7-6"
             sodipodi:nodetypes="ccccc"
             inkscape:label="inner" /></g><g
           id="g70"
           transform="matrix(0.07243101,-0.73365142,0.47253239,0.04665158,487.17919,1313.8833)"
           style="stroke:none"><path
             style="fill:#ffced7;fill-opacity:1;stroke:none;stroke-width:2.0064;stroke-linecap:round;stroke-linejoin:round;stroke-dasharray:none;stroke-opacity:1;paint-order:markers fill stroke"
             d="m 310.72159,637.05063 c -2.11895,0.678 -0.68644,3.61021 -1.10249,5.25127 0.35291,24.70761 0.69284,49.41971 1.6045,74.11427 1.23751,2.49603 3.32113,-1.25797 4.60892,-2.04162 10.78912,-9.55735 24.50234,-14.6885 37.97104,-19.31528 33.29656,-10.64039 68.13618,-15.43056 102.9109,-18.0973 41.57209,-2.77282 83.4318,-0.93126 124.76977,3.99964 27.38696,3.55633 54.88875,8.26595 80.70068,18.52646 12.52819,5.28792 25.57887,11.92826 32.80029,24.0715 0.57702,0.98837 1.47606,3.69269 2.90485,2.2171 0.57034,-2.25266 -0.5995,-4.83095 -0.62425,-7.18486 -3.36072,-24.38106 -6.67195,-48.77201 -10.25561,-73.12062 -1.12353,-1.6402 -3.63107,-0.5643 -5.30984,-0.99781 -110.84558,-2.39939 -221.69604,-4.61116 -332.54654,-6.78588 -12.81064,-0.22102 -25.62007,-0.52527 -38.43222,-0.63687 z"
             id="path71"
             transform="matrix(1.3564505,0,0,2.1060183,575.7778,-892.9442)" /><path
             style="fill:none;fill-opacity:0.520147;stroke:#000000;stroke-width:8.68141;stroke-linecap:round;stroke-linejoin:round;stroke-dasharray:none;stroke-opacity:1;paint-order:markers fill stroke"
             d="m 994.77768,646.15828 c 3.27154,-74.06703 147.96262,-113.15605 247.70532,-113.62717 106.4289,-0.5027 272.8469,28.20457 276.9679,119.99113"
             id="path66"
             sodipodi:nodetypes="csc"
             inkscape:label="path66" /><path
             style="fill:none;fill-opacity:0.520147;stroke:none;stroke-width:0.377953;stroke-linecap:round;stroke-linejoin:round;stroke-dasharray:none;stroke-opacity:1;paint-order:markers fill stroke"
             d="M 1523.8151,655.48799 1506.8446,465.98337"
             id="path67" /><path
             style="fill:none;fill-opacity:0.520147;stroke:none;stroke-width:0.377953;stroke-linecap:round;stroke-linejoin:round;stroke-dasharray:none;stroke-opacity:1;paint-order:markers fill stroke"
             d="M 999.14188,649.12403 996.31346,449.71991"
             id="path68" /><path
             style="fill:none;fill-opacity:0.520147;stroke:none;stroke-width:0.377953;stroke-linecap:round;stroke-linejoin:round;stroke-dasharray:none;stroke-opacity:1;paint-order:markers fill stroke"
             d="m 996.31346,449.71991 510.53114,16.26346"
             id="path70" /></g><g
           id="g21"
           inkscape:label="shell"
           style="display:inline"><path
             style="fill:#5d1cff;fill-opacity:1;stroke:#000000;stroke-width:3.77953;stroke-linecap:round;stroke-linejoin:round;stroke-dasharray:none;stroke-opacity:1;paint-order:markers fill stroke"
             d="m 875.60464,193.31814 c -45.30723,2.77837 -84.19887,181.01542 -74.2016,358.68162 C 804.87921,613.77638 811.808,614.119 676.834,569.55 374.772,469.806 275.867,432.236 283.191,358.058 c 1.248,-12.642 3.347,-33.909 4.812,-48.745 3.557,-36.029 37.58084,-52.81426 82.94088,-62.60334"
             id="path1"
             sodipodi:nodetypes="cssssc"
             inkscape:label="main" /><path
             style="fill:#5634d0;fill-opacity:1;stroke:none;stroke-width:2.92352;stroke-linecap:round;stroke-linejoin:round;stroke-dasharray:none;stroke-opacity:1;paint-order:markers fill stroke"
             d="m 351.138,302.045 c 3.15602,-32.29277 285.24635,-58.43534 432.281,-69.648 3.05297,-0.23282 22.56667,10.23977 18.43993,23.43664 -17.86513,57.13066 -36.70074,227.31172 -23.05151,284.17911 3.30233,13.75866 -33.41204,18.62355 -44.66701,15.44881 C 309.41494,435.6574 337.975,435.371 351.138,302.045 Z"
             id="path17-4"
             sodipodi:nodetypes="cssssc"
             inkscape:label="shine3" /><g
             id="g19"
             inkscape:label="dollar"><path
               style="opacity:1;fill:none;fill-opacity:1;stroke:#ffffff;stroke-width:11.3386;stroke-linecap:round;stroke-linejoin:round;stroke-dasharray:none;stroke-opacity:1;paint-order:markers fill stroke"
               d="m 709.37352,442.349 c -1.393,14.112 8.746,25.487 17.81,27.162 9.262,1.713 22.592,-10.91 24.542,-30.664 4.876,-49.386 -38.165,-38.911 -33.985,-81.247 1.393,-14.111 9.963,-32.833 21.392,-32.674 18.941,0.265 24.305,20.177 22.838,35.033"
               id="path12"
               sodipodi:nodetypes="cccccc"
               inkscape:label="s" /><path
               style="opacity:1;fill:none;fill-opacity:1;stroke:#ffffff;stroke-width:11.3386;stroke-linecap:round;stroke-linejoin:round;stroke-dasharray:none;stroke-opacity:1;paint-order:markers fill stroke"
               d="m 727.18352,469.511 -3.33,33.729"
               id="path13"
               sodipodi:nodetypes="cc"
               inkscape:label="top" /><path
               style="opacity:1;fill:none;fill-opacity:1;stroke:#ffffff;stroke-width:11.3386;stroke-linecap:round;stroke-linejoin:round;stroke-dasharray:none;stroke-opacity:1;paint-order:markers fill stroke"
               d="m 741.45452,324.959 3.806,-38.548"
               id="path14"
               sodipodi:nodetypes="cc"
               inkscape:label="under" /></g><path
             style="opacity:1;fill:none;fill-opacity:1;stroke:#ffffff;stroke-width:11.3386;stroke-linecap:round;stroke-linejoin:round;stroke-dasharray:none;stroke-opacity:1;paint-order:markers fill stroke"
             d="m 675.92856,451.2725 c -12.726,-24.417 -20.1026,-70.18928 -19.64459,-74.84477 0.57436,-5.8383 26.37359,-43.50423 38.98659,-57.21723"
             id="path15"
             sodipodi:nodetypes="csc"
             inkscape:label="symbol_arrow" /><path
             style="opacity:1;fill:none;fill-opacity:1;stroke:#ffffff;stroke-width:11.3386;stroke-linecap:round;stroke-linejoin:round;stroke-dasharray:none;stroke-opacity:1;paint-order:markers fill stroke"
             d="m 707.35139,248.6794 c 0,0 -42.83439,-0.2124 -59.28939,1.2496"
             id="path16"
             sodipodi:nodetypes="cc"
             inkscape:label="symbol_underscore" /><path
             style="opacity:1;fill:none;fill-opacity:1;stroke:#ffffff;stroke-width:11.3386;stroke-linecap:round;stroke-linejoin:round;stroke-dasharray:none;stroke-opacity:1;paint-order:markers fill stroke"
             d="M 699.182,526.602 C 347.081,432.733 328.29993,405.01753 335.78688,335.88836 c 5.06797,-46.79405 3.47043,-56.31385 265.34143,-80.23885"
             id="path17"
             sodipodi:nodetypes="csc"
             inkscape:label="symbol_outline" /><path
             style="opacity:1;fill:#4319b7;fill-opacity:1;stroke:none;stroke-width:1.88976;stroke-linecap:round;stroke-linejoin:round;stroke-dasharray:none;stroke-opacity:1;paint-order:markers fill stroke"
             d="m 613.41,417.589 c -3.157,31.976 -206.996,-41.337 -209.691,-41.665 -5.064,-0.615 -4.951,-28.524 -2.227,-56.116 1.634,-16.555 129.175,-23.215 197.79,-25.318 16.83,-0.515 16.371,100.376 14.128,123.099 z"
             id="path18"
             sodipodi:nodetypes="ccccc"
             inkscape:label="shine2" /><path
             style="opacity:1;fill:#755de4;fill-opacity:1;stroke:none;stroke-width:0.755906;stroke-linecap:round;stroke-linejoin:round;stroke-dasharray:none;stroke-opacity:1;paint-order:markers fill stroke"
             d="m 592.258,377.392 c -1.43,14.481 -108.421,-15.92 -110.106,-16.054 -3.191,-0.254 -3.363,-15.431 -1.877,-30.476 0.891,-9.028 72.951,-9.949 105.812,-9.682 7.532,0.061 7.187,45.921 6.171,56.212 z"
             id="path19"
             sodipodi:nodetypes="ccccc"
             inkscape:label="shine1" /></g></g></g></g></svg>
