<?xml version="1.0" encoding="UTF-8" standalone="no"?>
<!-- Created with Inkscape (http://www.inkscape.org/) -->

<svg
   width="1280mm"
   height="800mm"
   viewBox="0 0 1280 800"
   version="1.1"
   id="svg1"
   xml:space="preserve"
   inkscape:version="1.3.1 (91b66b0783, 2023-11-16)"
   sodipodi:docname="promotion.svg"
   inkscape:export-filename="promotion.png"
   inkscape:export-xdpi="25.4"
   inkscape:export-ydpi="25.4"
   xmlns:inkscape="http://www.inkscape.org/namespaces/inkscape"
   xmlns:sodipodi="http://sodipodi.sourceforge.net/DTD/sodipodi-0.dtd"
   xmlns:xlink="http://www.w3.org/1999/xlink"
   xmlns="http://www.w3.org/2000/svg"
   xmlns:svg="http://www.w3.org/2000/svg"><sodipodi:namedview
     id="namedview1"
     pagecolor="#ffffff"
     bordercolor="#eeeeee"
     borderopacity="1"
     inkscape:showpageshadow="0"
     inkscape:pageopacity="0"
     inkscape:pagecheckerboard="0"
     inkscape:deskcolor="#d1d1d1"
     inkscape:document-units="mm"
     inkscape:zoom="0.19757382"
     inkscape:cx="1493.1128"
     inkscape:cy="2194.1166"
     inkscape:window-width="2560"
     inkscape:window-height="1417"
     inkscape:window-x="-8"
     inkscape:window-y="-8"
     inkscape:window-maximized="1"
     inkscape:current-layer="layer1" /><defs
     id="defs1"><linearGradient
       id="linearGradient4"
       inkscape:collect="always"><stop
         style="stop-color:#cdc700;stop-opacity:1;"
         offset="0"
         id="stop4" /><stop
         style="stop-color:#dbb96e;stop-opacity:1;"
         offset="0.38494936"
         id="stop5" /><stop
         style="stop-color:#c1bc76;stop-opacity:1;"
         offset="0.49638206"
         id="stop9" /><stop
         style="stop-color:#d6df6e;stop-opacity:1;"
         offset="0.66859621"
         id="stop8" /><stop
         style="stop-color:#9f9c00;stop-opacity:1;"
         offset="1"
         id="stop6" /></linearGradient><linearGradient
       id="linearGradient2"
       inkscape:collect="always"><stop
         style="stop-color:#aa7251;stop-opacity:1;"
         offset="0"
         id="stop2" /><stop
         style="stop-color:#476e85;stop-opacity:1;"
         offset="0.50217074"
         id="stop3" /><stop
         style="stop-color:#70421d;stop-opacity:1;"
         offset="1"
         id="stop7" /></linearGradient><linearGradient
       inkscape:collect="always"
       xlink:href="#linearGradient2"
       id="linearGradient3"
       x1="152.10071"
       y1="169.92456"
       x2="1126.6439"
       y2="169.25763"
       gradientUnits="userSpaceOnUse"
       gradientTransform="matrix(1.1351013,0,0,1.1351013,-86.464865,-23.507771)" /><linearGradient
       inkscape:collect="always"
       xlink:href="#linearGradient4"
       id="linearGradient5"
       x1="152.10071"
       y1="169.92456"
       x2="1127.9167"
       y2="234.20886"
       gradientUnits="userSpaceOnUse"
       gradientTransform="matrix(1.1351013,0,0,1.1351013,-86.464865,-23.507771)" /></defs><g
     inkscape:label="Layer 1"
     inkscape:groupmode="layer"
     id="layer1"><g
       id="layer2"
       inkscape:label="Layer 2"
       transform="matrix(1.3555654,0,0,1.3555654,-93.743923,-265.06255)"><g
         id="g12"
         inkscape:label="outline"
         transform="translate(26.228702,5.161405)"><path
           id="path5-6"
           style="display:inline;fill:none;fill-opacity:1;stroke:#ffffff;stroke-width:22.6772;stroke-linecap:round;stroke-linejoin:round;stroke-dasharray:none;stroke-opacity:1;paint-order:markers fill stroke"
           d="m 338.4869,464.50001 c -28.48426,-10e-6 -43.71808,1.33001 -48.40429,16.91601 -22.45,-0.55387 -28.88322,-3.91602 -65.59571,-3.91602 -35.99997,0 -72.52807,41.38086 -78,41.38086 4,0 32.00006,38.61913 94.00001,38.61914 20.14353,-10e-6 38.97581,-10.09439 59.89452,-10.91992 2.12046,3.11659 4.24246,4.91992 6.10547,4.91992 6.01456,0 9.729,-1.11795 14.20704,-1.68164 18.04875,7.64816 50.7504,9.68164 110.17577,9.68164 213.21061,0 303.74675,-3.48063 342.50587,-9.78515 10.12353,0.39831 10.69567,1.2246 22.11132,1.2246 4.869,0 8.46452,-2.37677 11.11914,-6.10546 24.10768,-0.97309 59.88093,-12.67119 59.88083,-20.33399 -2e-4,-0.13437 -0.011,-0.30434 -0.014,-0.44723 4.0479,-1.42726 11.0137,-5.88321 11.0137,-7.55273 0,-2.00001 -1,-3.99996 -2,-4.00001 -1.4412,0 -8.0578,0.52122 -11.6523,1.18556 -0.6355,-0.73071 -1.4057,-1.18553 -2.3478,-1.18552 -0.8968,10e-6 -1.9476,0.20132 -3.1445,0.5449 0.085,-0.19042 0.1445,-0.37491 0.1445,-0.54491 -3e-4,-0.59334 -0.055,-1.17152 -0.1481,-1.7344 3.9808,-1.88378 8.9356,-5.27364 8.9356,-6.68165 0,-2 -0.9999,-3.99996 -2,-4 -1.7101,-10e-6 -10.7256,0.73128 -13.3047,1.56836 -1.1625,-0.73757 -2.225,-1.15235 -2.9159,-1.15236 -3.3036,1e-5 -29.24989,2.56967 -36.24224,2.94923 -4.11692,-22.38826 -28.34621,-35.94922 -74.32423,-35.94922 -88.14836,0 -350.00005,-3 -399.99999,-2.99999 z"
           inkscape:label="white" /><path
           id="path5-6-4"
           style="display:inline;fill:none;fill-opacity:1;stroke:#000000;stroke-width:11.3386;stroke-linecap:round;stroke-linejoin:round;stroke-dasharray:none;stroke-opacity:1;paint-order:markers fill stroke"
           d="m 338.4869,464.50001 c -28.48426,-10e-6 -43.71808,1.33001 -48.40429,16.91601 -22.45,-0.55387 -28.88322,-3.91602 -65.59571,-3.91602 -35.99997,0 -72.52807,41.38086 -78,41.38086 4,0 32.00006,38.61913 94.00001,38.61914 20.14353,-10e-6 38.97581,-10.09439 59.89452,-10.91992 2.12046,3.11659 4.24246,4.91992 6.10547,4.91992 6.01456,0 9.729,-1.11795 14.20704,-1.68164 18.04875,7.64816 50.7504,9.68164 110.17577,9.68164 213.21061,0 303.74675,-3.48063 342.50587,-9.78515 10.12353,0.39831 10.69567,1.2246 22.11132,1.2246 4.869,0 8.46452,-2.37677 11.11914,-6.10546 24.10768,-0.97309 59.88093,-12.67119 59.88083,-20.33399 -2e-4,-0.13437 -0.011,-0.30434 -0.014,-0.44723 4.0479,-1.42726 11.0137,-5.88321 11.0137,-7.55273 0,-2.00001 -1,-3.99996 -2,-4.00001 -1.4412,0 -8.0578,0.52122 -11.6523,1.18556 -0.6355,-0.73071 -1.4057,-1.18553 -2.3478,-1.18552 -0.8968,10e-6 -1.9476,0.20132 -3.1445,0.5449 0.085,-0.19042 0.1445,-0.37491 0.1445,-0.54491 -3e-4,-0.59334 -0.055,-1.17152 -0.1481,-1.7344 3.9808,-1.88378 8.9356,-5.27364 8.9356,-6.68165 0,-2 -0.9999,-3.99996 -2,-4 -1.7101,-10e-6 -10.7256,0.73128 -13.3047,1.56836 -1.1625,-0.73757 -2.225,-1.15235 -2.9159,-1.15236 -3.3036,1e-5 -29.24989,2.56967 -36.24224,2.94923 -4.11692,-22.38826 -28.34621,-35.94922 -74.32423,-35.94922 -88.14836,0 -350.00005,-3 -399.99999,-2.99999 z"
           inkscape:label="black" /></g><g
         id="g9"
         transform="rotate(-5.6383573,1921.701,1698.4906)"
         inkscape:label="razorshell"><g
           id="g20"
           inkscape:label="nose"><g
             id="g25"
             inkscape:label="nosetop2"><path
               style="display:inline;opacity:1;fill:#ffc0bd;fill-opacity:1;stroke:#000000;stroke-width:1.88976;stroke-linecap:round;stroke-linejoin:round;stroke-dasharray:none;stroke-opacity:1;paint-order:markers fill stroke"
               d="m 1012.0462,424.12303 c 0.098,-0.99517 12.1385,-0.81134 14.1288,-0.61484 0.9952,0.0983 1.7938,2.18682 1.5973,4.17715 -0.1965,1.99032 -10.7376,6.9788 -13.7231,6.68405 -1.9903,-0.1965 -2.2976,-7.26087 -2.003,-10.24636 z"
               id="path8"
               sodipodi:nodetypes="sssss"
               inkscape:label="main" /><path
               style="fill:none;fill-opacity:1;stroke:#000000;stroke-width:0.755906;stroke-linecap:round;stroke-linejoin:round;stroke-dasharray:none;stroke-dashoffset:0;stroke-opacity:1;paint-order:markers fill stroke"
               d="m 1020.3716,425.32476 -5.0792,0.0795 m 5.8018,1.36411 -4.5148,0.86688"
               id="path22-9"
               sodipodi:nodetypes="cccc" /><path
               style="fill:none;fill-opacity:1;stroke:#000000;stroke-width:0.755906;stroke-linecap:round;stroke-linejoin:round;stroke-dasharray:none;stroke-dashoffset:0;stroke-opacity:1;paint-order:markers fill stroke"
               d="m 1021.5552,428.12648 -4.5728,1.83516"
               id="path23-5"
               sodipodi:nodetypes="cc" /><path
               style="fill:none;fill-opacity:1;stroke:#000000;stroke-width:0.755906;stroke-linecap:round;stroke-linejoin:round;stroke-dasharray:none;stroke-dashoffset:0;stroke-opacity:1;paint-order:markers fill stroke"
               d="m 1022.2119,429.19618 -4.5965,2.85502"
               id="path24-6"
               sodipodi:nodetypes="cc" /></g><g
             id="g24"
             inkscape:label="nosetop1"><path
               style="display:inline;fill:#ffc0bd;fill-opacity:1;stroke:#000000;stroke-width:1.88976;stroke-linecap:round;stroke-linejoin:round;stroke-dasharray:none;stroke-opacity:1;paint-order:markers fill stroke"
               d="m 1003.1024,410.76418 c 0.098,-0.99517 12.1385,-0.81134 14.1288,-0.61484 0.9952,0.0983 1.7938,2.18682 1.5973,4.17715 -0.1965,1.99032 -10.7376,6.9788 -13.7231,6.68405 -1.9903,-0.1965 -2.2976,-7.26087 -2.003,-10.24636 z"
               id="path8-3"
               sodipodi:nodetypes="sssss"
               inkscape:label="main" /><path
               style="opacity:1;fill:none;fill-opacity:1;stroke:#000000;stroke-width:0.755906;stroke-linecap:round;stroke-linejoin:round;stroke-dasharray:none;stroke-dashoffset:0;stroke-opacity:1;paint-order:markers fill stroke"
               d="M 860.54688,502.32812 855.5,502.90625 m 5.90778,0.78749 L 857,505"
               id="path22"
               sodipodi:nodetypes="cccc"
               transform="rotate(5.6383573,1854.6529,1993.2329)" /><path
               style="opacity:1;fill:none;fill-opacity:1;stroke:#000000;stroke-width:0.755906;stroke-linecap:round;stroke-linejoin:round;stroke-dasharray:none;stroke-dashoffset:0;stroke-opacity:1;paint-order:markers fill stroke"
               d="m 862,505 -4.37042,2.27556"
               id="path23"
               transform="rotate(5.6383573,1854.6529,1993.2329)" /><path
               style="opacity:1;fill:none;fill-opacity:1;stroke:#000000;stroke-width:0.755906;stroke-linecap:round;stroke-linejoin:round;stroke-dasharray:none;stroke-dashoffset:0;stroke-opacity:1;paint-order:markers fill stroke"
               d="m 862.75866,506 -4.29377,3.29281"
               id="path24"
               transform="rotate(5.6383573,1854.6529,1993.2329)" /></g><g
             id="g35"
             inkscape:label="nose2"><path
               style="display:inline;opacity:1;fill:#ffdbe1;fill-opacity:1;stroke:#000000;stroke-width:3.77953;stroke-linecap:round;stroke-linejoin:round;stroke-dasharray:none;stroke-opacity:1;paint-order:markers fill stroke"
               d="m 963.36888,408.26379 c 3.98065,0.39299 34.13025,0.35498 37.67952,0.70539 2.4217,0.23909 8.8966,5.90264 8.2088,12.86877 -0.393,3.98065 -25.25933,11.5743 -48.14805,9.31456 -5.97097,-0.58949 -7.27356,-7.75213 -6.68406,-13.7231 0.49124,-4.97581 4.95804,-9.50693 8.94379,-9.16562 z"
               id="path5"
               sodipodi:nodetypes="ccccsc"
               inkscape:label="main" /><path
               style="display:inline;opacity:1;fill:none;fill-opacity:1;stroke:#000000;stroke-width:3.02362;stroke-linecap:butt;stroke-linejoin:round;stroke-dasharray:0.302362, 0.302362;stroke-dashoffset:0;stroke-opacity:1;paint-order:markers fill stroke"
               d="m 844.168,500.82638 c 2.75544,3.59117 5.45293,9.01063 4.89834,15.93132"
               transform="rotate(5.6383573,1854.6529,1993.2329)"
               id="path31" /><path
               style="display:inline;opacity:1;fill:none;fill-opacity:1;stroke:#000000;stroke-width:3.02362;stroke-linecap:butt;stroke-linejoin:round;stroke-dasharray:0.302362, 0.302362;stroke-dashoffset:0;stroke-opacity:1;paint-order:markers fill stroke"
               d="m 812.96694,504.0354 c 2.38928,3.84451 6.52059,13.30941 5.28873,20.14213"
               transform="rotate(5.6383573,1854.6529,1993.2329)"
               id="path30" /><path
               style="display:inline;opacity:1;fill:none;fill-opacity:1;stroke:#000000;stroke-width:3.02362;stroke-linecap:butt;stroke-linejoin:round;stroke-dasharray:0.302362, 0.302362;stroke-dashoffset:0;stroke-opacity:1;paint-order:markers fill stroke"
               d="m 822,502.93934 c 2,4.06066 5.18141,13.88566 3.2842,20.5643"
               transform="rotate(5.6383573,1854.6529,1993.2329)"
               id="path20" /><path
               style="display:inline;fill:none;fill-opacity:1;stroke:#000000;stroke-width:3.02362;stroke-linecap:butt;stroke-linejoin:round;stroke-dasharray:0.302362, 0.302362;stroke-dashoffset:0;stroke-opacity:1;paint-order:markers fill stroke"
               d="m 982.417,408.71806 c 1.64527,4.10087 3.8706,10.6091 1.20301,19.37627"
               id="path20-6" /><path
               style="display:inline;fill:none;fill-opacity:1;stroke:#000000;stroke-width:3.02362;stroke-linecap:butt;stroke-linejoin:round;stroke-dasharray:0.302362, 0.302362;stroke-dashoffset:0;stroke-opacity:1;paint-order:markers fill stroke"
               d="m 989.48963,409.07445 c 1.15874,2.71938 3.8011,7.61324 1.41032,18.11557"
               id="path20-0" /></g><g
             id="g34"
             inkscape:label="nose1"><path
               style="display:inline;opacity:1;fill:#ffdbe1;fill-opacity:1;stroke:#000000;stroke-width:3.77953;stroke-linecap:round;stroke-linejoin:round;stroke-dasharray:none;stroke-opacity:1;paint-order:markers fill stroke"
               d="m 961.30565,429.16219 c 26.86937,2.65272 43.97325,-7.71701 50.93705,-7.02949 3.9807,0.39299 4.1898,8.45254 3.7968,12.43319 -0.7859,7.96129 -40.81614,16.47557 -64.70002,14.11759 -2.98549,-0.29475 -5.25852,-3.38495 -4.76727,-8.36076 1.23758,-12.53536 12.74311,-11.35703 14.73344,-11.16053 z"
               id="path6"
               sodipodi:nodetypes="cccccc"
               inkscape:label="main" /><path
               style="display:inline;fill:none;fill-opacity:1;stroke:#000000;stroke-width:3.02362;stroke-linecap:butt;stroke-linejoin:round;stroke-dasharray:0.302362, 0.302362;stroke-dashoffset:0;stroke-opacity:1;paint-order:markers fill stroke"
               d="m 961.95313,429.32316 c 0.97218,1.5281 3.31204,12.16186 1.34596,19.79414"
               id="path32" /><path
               style="display:inline;fill:none;fill-opacity:1;stroke:#000000;stroke-width:3.02362;stroke-linecap:butt;stroke-linejoin:round;stroke-dasharray:0.302362, 0.302362;stroke-dashoffset:0;stroke-opacity:1;paint-order:markers fill stroke"
               d="m 971.13172,430.6347 c 0.97218,1.5281 3.49012,10.35813 1.52404,17.99041"
               id="path20-9" /><path
               style="display:inline;fill:none;fill-opacity:1;stroke:#000000;stroke-width:3.02362;stroke-linecap:butt;stroke-linejoin:round;stroke-dasharray:0.302362, 0.302362;stroke-dashoffset:0;stroke-opacity:1;paint-order:markers fill stroke"
               d="m 978.29123,429.59044 c 1.77591,3.33856 3.40963,11.22939 1.3631,17.75472"
               id="path20-6-1" /><path
               style="display:inline;fill:none;fill-opacity:1;stroke:#000000;stroke-width:3.02362;stroke-linecap:butt;stroke-linejoin:round;stroke-dasharray:0.302362, 0.302362;stroke-dashoffset:0;stroke-opacity:1;paint-order:markers fill stroke"
               d="m 992.08655,427.12464 c 3.34084,2.89412 6.22098,10.84832 2.51354,18.01899"
               id="path33" /><path
               style="display:inline;fill:none;fill-opacity:1;stroke:#000000;stroke-width:3.02362;stroke-linecap:butt;stroke-linejoin:round;stroke-dasharray:0.302362, 0.302362;stroke-dashoffset:0;stroke-opacity:1;paint-order:markers fill stroke"
               d="m 985.37143,428.97058 c 2.79508,3.34592 3.50772,12.98045 1.55521,17.54756"
               id="path20-0-9" /><path
               style="display:inline;fill:none;fill-opacity:1;stroke:#000000;stroke-width:3.02362;stroke-linecap:butt;stroke-linejoin:round;stroke-dasharray:0.302362, 0.302362;stroke-dashoffset:0;stroke-opacity:1;paint-order:markers fill stroke"
               d="m 1004.5665,423.40365 c 4.0384,1.79689 7.1082,8.56897 5.6475,16.50811"
               id="path34" /><path
               style="display:inline;fill:none;fill-opacity:1;stroke:#000000;stroke-width:3.02362;stroke-linecap:butt;stroke-linejoin:round;stroke-dasharray:0.302362, 0.302362;stroke-dashoffset:0;stroke-opacity:1;paint-order:markers fill stroke"
               d="m 998.68428,425.53816 c 3.84232,2.18496 6.23192,9.22588 3.99832,16.9831"
               id="path1-8" /></g></g><g
           id="g36"
           inkscape:label="after_fire"><path
             style="display:inline;opacity:1;fill:#acefff;fill-opacity:1;stroke:#000000;stroke-width:3.77953;stroke-linecap:round;stroke-linejoin:round;stroke-dasharray:none;stroke-opacity:1;paint-order:markers fill stroke"
             d="m 453.02201,335.77192 c -27.86454,-2.75098 -31.45219,-7.12462 -71.25866,-11.05459 -35.82583,-3.53697 -76.24277,34.05444 -81.68822,33.51683 3.98065,0.39299 28.05084,41.57665 89.75088,47.66811 20.8984,2.06323 41.45335,-6.96092 63.34691,-4.79944 6.96614,0.68774 16.32627,-18.4854 17.80001,-33.41282 1.27724,-12.93711 -5.08194,-30.64758 -17.95092,-31.91809 z"
             id="path9"
             sodipodi:nodetypes="ccccccc"
             inkscape:label="outer" /><path
             style="display:inline;fill:#ffffff;fill-opacity:1;stroke:none;stroke-width:3.10266;stroke-linecap:round;stroke-linejoin:round;stroke-dasharray:none;stroke-opacity:1;paint-order:markers fill stroke"
             d="m 446.31651,342.01966 c -22.87433,-2.25832 -25.81947,-5.84869 -58.49707,-9.07485 -29.40985,-2.90354 -62.58859,27.95569 -67.05882,27.51436 3.26776,0.32261 23.02726,34.13076 73.67755,39.13132 17.15575,1.69372 34.02955,-5.71431 52.00223,-3.93992 5.71858,0.56457 13.40242,-15.17488 14.61223,-27.42898 1.04851,-10.62022 -4.17182,-25.15896 -14.73612,-26.20193 z"
             id="path9-7"
             sodipodi:nodetypes="ccccccc"
             inkscape:label="main" /><path
             style="display:inline;fill:#e5d3ff;fill-opacity:1;stroke:none;stroke-width:1.77404;stroke-linecap:round;stroke-linejoin:round;stroke-dasharray:none;stroke-opacity:1;paint-order:markers fill stroke"
             d="m 458.8127,352.92392 c -13.07908,-1.29126 -14.76305,-3.34416 -33.44745,-5.18882 -16.81596,-1.66018 -35.7869,15.98451 -38.34289,15.73216 1.86844,0.18446 13.16653,19.51528 42.12735,22.3745 9.80931,0.96844 19.45741,-3.26732 29.73383,-2.25276 3.26977,0.32281 7.66323,-8.67669 8.35498,-15.68334 0.59951,-6.07243 -2.38537,-14.38539 -8.42582,-14.98174 z"
             id="path9-7-6"
             sodipodi:nodetypes="ccccccc"
             inkscape:label="inner" /></g><path
           style="display:inline;fill:#ffced7;fill-opacity:1;stroke:#000000;stroke-width:3.77953;stroke-linecap:round;stroke-linejoin:round;stroke-dasharray:none;stroke-opacity:1;paint-order:markers fill stroke"
           d="m 475.20076,406.29215 c -7.04144,-0.67726 -11.14328,0.90958 -19.10458,0.12359 -7.06662,-0.69767 -15.45668,-26.64753 -12.31271,-58.49271 2.75098,-27.86453 17.8749,-28.38112 52.70557,-24.9424 49.75809,4.91246 310.04801,33.62463 397.76999,42.28514 49.75809,4.91246 72.41517,23.23533 70.51068,49.16549 -1.17236,15.96204 -6.06167,41.04199 -21.98426,39.47001 -14.92743,-1.47374 -10.8054,-2.51276 -34.68929,-4.87074 -89.63969,-8.84984 -385.00323,-38.13204 -432.8954,-42.73838 z"
           id="path2"
           sodipodi:nodetypes="sssssssss"
           inkscape:label="body" /><g
           id="g21"
           inkscape:label="shell"><path
             style="fill:#5d1cff;fill-opacity:1;stroke:#000000;stroke-width:3.77953;stroke-linecap:round;stroke-linejoin:round;stroke-dasharray:none;stroke-opacity:1;paint-order:markers fill stroke"
             d="m 454.22634,343.92971 c 1.14335,-11.58098 6.67002,-16.6694 66.37973,-10.77445 258.74208,25.54478 436.65558,45.36459 433.21686,80.19526 -0.58606,5.93612 -1.57199,15.92259 -2.25973,22.88872 -1.67024,16.91775 -11.60919,25.98513 -372.47195,-9.6417 C 447.3489,413.59104 448.33139,403.63942 454.22634,343.92971 Z"
             id="path1"
             sodipodi:nodetypes="ssssss"
             inkscape:label="main" /><path
             style="fill:#5634d0;fill-opacity:1;stroke:none;stroke-width:2.92352;stroke-linecap:round;stroke-linejoin:round;stroke-dasharray:none;stroke-opacity:1;paint-order:markers fill stroke"
             d="m 833.1023,427.07672 c -1.27523,12.91671 -252.78338,-13.09016 -353.60395,-23.18646 -22.05482,-2.20859 -11.82594,-68.28402 -2.40447,-67.2491 344.326,33.99421 361.31589,36.67643 356.00842,90.43556 z"
             id="path17-4"
             sodipodi:nodetypes="cscc"
             inkscape:label="shine3" /><g
             id="g19"
             inkscape:label="dollar"><path
               style="opacity:1;fill:none;fill-opacity:1;stroke:#ffffff;stroke-width:3.77953;stroke-linecap:round;stroke-linejoin:round;stroke-dasharray:none;stroke-opacity:1;paint-order:markers fill stroke"
               d="m 494.83726,360.48332 c 0.29475,-2.98548 -4.48619,-5.45067 -8.46683,-5.84366 -3.98065,-0.393 -9.25121,2.10124 -9.6442,6.08189 -0.9825,9.95162 17.22517,8.73462 16.34093,17.69107 -0.29475,2.98549 -3.67324,6.67139 -8.64905,6.18014 -7.96129,-0.78599 -10.55378,-5.06139 -10.25903,-8.04687"
               id="path12"
               sodipodi:nodetypes="cccccc"
               inkscape:label="s" /><path
               style="opacity:1;fill:none;fill-opacity:1;stroke:#ffffff;stroke-width:3.77953;stroke-linecap:round;stroke-linejoin:round;stroke-dasharray:none;stroke-opacity:1;paint-order:markers fill stroke"
               d="m 486.37043,354.63966 0.68774,-6.96614"
               id="path13"
               sodipodi:nodetypes="cc"
               inkscape:label="top" /><path
               style="opacity:1;fill:none;fill-opacity:1;stroke:#ffffff;stroke-width:3.77953;stroke-linecap:round;stroke-linejoin:round;stroke-dasharray:none;stroke-opacity:1;paint-order:markers fill stroke"
               d="m 483.42295,384.49451 -0.78599,7.9613"
               id="path14"
               sodipodi:nodetypes="cc"
               inkscape:label="under" /></g><path
             style="opacity:1;fill:none;fill-opacity:1;stroke:#ffffff;stroke-width:3.77953;stroke-linecap:round;stroke-linejoin:round;stroke-dasharray:none;stroke-opacity:1;paint-order:markers fill stroke"
             d="m 507.39658,358.72523 c 6.88225,5.58753 12.948,17.39387 13.03119,17.36431 0,0 -13.2007,8.69572 -18.8659,11.20064"
             id="path15"
             sodipodi:nodetypes="ccc"
             inkscape:label="symbol_arrow" /><path
             style="opacity:1;fill:none;fill-opacity:1;stroke:#ffffff;stroke-width:3.77953;stroke-linecap:round;stroke-linejoin:round;stroke-dasharray:none;stroke-opacity:1;paint-order:markers fill stroke"
             d="m 519.56884,405.14574 c 0,0 17.3062,3.25682 26.718,4.18602"
             id="path16"
             sodipodi:nodetypes="cc"
             inkscape:label="symbol_underscore" /><path
             style="opacity:1;fill:none;fill-opacity:1;stroke:#ffffff;stroke-width:2.64567;stroke-linecap:round;stroke-linejoin:round;stroke-dasharray:none;stroke-opacity:1;paint-order:markers fill stroke"
             d="m 510.63464,342.96712 c 313.47598,30.94848 328.20691,34.41254 324.1787,75.21418 -1.86674,18.90807 -7.81157,19.32602 -270.65869,-6.62403"
             id="path17"
             sodipodi:nodetypes="ccc"
             inkscape:label="symbol_outline" /><path
             style="opacity:1;fill:#4319b7;fill-opacity:1;stroke:none;stroke-width:1.88976;stroke-linecap:round;stroke-linejoin:round;stroke-dasharray:none;stroke-opacity:1;paint-order:markers fill stroke"
             d="m 561.31498,369.07273 c 0.78599,-7.9613 185.26688,22.31025 188.68775,22.64798 6.53075,0.64477 8.96913,10.93411 7.98664,20.88573 -0.58949,5.97097 -132.04911,-6.0027 -182.80236,-11.01346 -10.94678,-1.08074 -14.43057,-26.86275 -13.87203,-32.52025 z"
             id="path18"
             sodipodi:nodetypes="ccccc"
             inkscape:label="shine2" /><path
             style="opacity:1;fill:#755de4;fill-opacity:1;stroke:none;stroke-width:0.755906;stroke-linecap:round;stroke-linejoin:round;stroke-dasharray:none;stroke-opacity:1;paint-order:markers fill stroke"
             d="m 576.52587,380.1157 c 0.36892,-3.73681 86.95911,10.47181 88.56477,10.63033 3.06535,0.30264 4.20986,5.13217 3.74871,9.80318 -0.2767,2.80261 -61.98017,-2.81749 -85.80234,-5.16941 -5.13811,-0.50727 -6.7733,-12.60862 -6.51114,-15.2641 z"
             id="path19"
             sodipodi:nodetypes="ccccc"
             inkscape:label="shine1" /></g></g></g><text
       xml:space="preserve"
       style="font-weight:bold;font-size:193.378px;line-height:normal;font-family:Arial;-inkscape-font-specification:'Arial, Bold';text-decoration-color:#000000;fill:url(#linearGradient5);stroke:url(#linearGradient3);stroke-width:3.4053;stroke-linecap:round;stroke-linejoin:round;stroke-dasharray:none;paint-order:markers fill stroke"
       x="640.37775"
       y="243.11859"
       id="text1"><tspan
         sodipodi:role="line"
         id="tspan1"
         style="font-style:normal;font-variant:normal;font-weight:bold;font-stretch:normal;font-size:193.378px;font-family:Arimo;-inkscape-font-specification:'Arimo, Bold';font-variant-ligatures:normal;font-variant-caps:normal;font-variant-numeric:normal;font-variant-east-asian:normal;text-align:center;text-anchor:middle;fill:url(#linearGradient5);stroke:url(#linearGradient3);stroke-width:3.4053;stroke-dasharray:none"
         x="640.37775"
         y="243.11859">Razorshell</tspan></text><text
       xml:space="preserve"
       style="font-weight:bold;font-size:75.4262px;line-height:normal;font-family:Arial;-inkscape-font-specification:'Arial, Bold';text-decoration-color:#000000;fill:#3d1b89;stroke-width:3.44302;stroke-linecap:round;stroke-linejoin:round;paint-order:markers fill stroke;stroke:none;stroke-opacity:1;fill-opacity:1"
       x="639.76062"
       y="707.01764"
       id="text2"><tspan
         sodipodi:role="line"
         id="tspan2"
         style="font-style:normal;font-variant:normal;font-weight:normal;font-stretch:normal;font-size:75.4262px;font-family:Arimo;-inkscape-font-specification:'Arimo, Normal';font-variant-ligatures:normal;font-variant-caps:normal;font-variant-numeric:normal;font-variant-east-asian:normal;text-align:center;text-anchor:middle;stroke-width:3.44302;stroke:none;stroke-opacity:1;fill:#3d1b89;fill-opacity:1"
         x="639.76062"
         y="707.01764">adds bash shortcuts to textboxes</tspan></text></g></svg>
